# Blender 4.1.1
# www.blender.org
mtllib Pavement.mtl
o Pavement
v -0.500000 0.000000 0.312441
v -0.250001 0.000000 0.312441
v -0.250001 0.000000 0.156220
v -0.500000 0.000000 0.156220
v 0.000000 0.000000 0.312441
v 0.000000 0.000000 0.156220
v 0.250000 0.000000 0.312441
v 0.250000 0.000000 0.156220
v 0.500000 0.000000 0.312441
v 0.500000 0.000000 0.156220
v -0.250001 0.000000 0.000000
v -0.500000 0.000000 0.000000
v 0.000000 0.000000 0.000000
v 0.250000 0.000000 0.000000
v 0.500000 0.000000 0.000000
v -0.250001 -0.000000 -0.156220
v -0.500000 -0.000000 -0.156220
v 0.000000 -0.000000 -0.156220
v 0.250000 -0.000000 -0.156220
v 0.500000 -0.000000 -0.156220
v -0.250001 -0.000000 -0.312441
v -0.500000 -0.000000 -0.312441
v 0.000000 -0.000000 -0.312441
v 0.250000 -0.000000 -0.312441
v 0.500000 -0.000000 -0.312441
vn -0.0000 1.0000 -0.0000
vt 0.000000 0.000000
vt 0.250000 0.000000
vt 0.250000 0.250000
vt 0.000000 0.250000
vt 0.500000 0.000000
vt 0.500000 0.250000
vt 0.750000 0.000000
vt 0.750000 0.250000
vt 1.000000 0.000000
vt 1.000000 0.250000
vt 0.250000 0.500000
vt 0.000000 0.500000
vt 0.500000 0.500000
vt 0.750000 0.500000
vt 1.000000 0.500000
vt 0.250000 0.750000
vt 0.000000 0.750000
vt 0.500000 0.750000
vt 0.750000 0.750000
vt 1.000000 0.750000
vt 0.250000 1.000000
vt 0.000000 1.000000
vt 0.500000 1.000000
vt 0.750000 1.000000
vt 1.000000 1.000000
s 0
usemtl Material_#2.001
f 1/1/1 2/2/1 3/3/1 4/4/1
f 2/2/1 5/5/1 6/6/1 3/3/1
f 5/5/1 7/7/1 8/8/1 6/6/1
f 7/7/1 9/9/1 10/10/1 8/8/1
f 4/4/1 3/3/1 11/11/1 12/12/1
f 3/3/1 6/6/1 13/13/1 11/11/1
f 6/6/1 8/8/1 14/14/1 13/13/1
f 8/8/1 10/10/1 15/15/1 14/14/1
f 12/12/1 11/11/1 16/16/1 17/17/1
f 11/11/1 13/13/1 18/18/1 16/16/1
f 13/13/1 14/14/1 19/19/1 18/18/1
f 14/14/1 15/15/1 20/20/1 19/19/1
f 17/17/1 16/16/1 21/21/1 22/22/1
f 16/16/1 18/18/1 23/23/1 21/21/1
f 18/18/1 19/19/1 24/24/1 23/23/1
f 19/19/1 20/20/1 25/25/1 24/24/1
